<?xml version="1.0" standalone="no"?>
<!DOCTYPE svg PUBLIC "-//W3C//DTD SVG 20010904//EN"
 "http://www.w3.org/TR/2001/REC-SVG-20010904/DTD/svg10.dtd">
<svg version="1.0" xmlns="http://www.w3.org/2000/svg"
 width="1280.000000pt" height="1847.000000pt" viewBox="0 0 1280.000000 1847.000000"
 preserveAspectRatio="xMidYMid meet">
<title>climb-left</title>
<metadata>
Created by potrace 1.15, written by Peter Selinger 2001-2017
</metadata>
<g transform="translate(0.000000,1847.000000) scale(0.100000,-0.100000)"
fill="#2196f3" stroke="none">
<path d="M6635 18391 c-929 -268 -1305 -394 -1547 -518 -101 -52 -147 -98
-190 -189 -40 -85 -42 -114 -25 -279 9 -84 12 -156 7 -180 -4 -22 -40 -103
-79 -180 -102 -199 -151 -244 -354 -324 -187 -75 -314 -156 -442 -285 -179
-181 -201 -296 -68 -358 64 -30 88 -68 123 -197 36 -132 29 -117 96 -201 88
-110 108 -173 124 -409 6 -80 11 -145 13 -146 1 -1 33 -14 72 -29 126 -50 132
-58 170 -256 21 -103 38 -146 73 -183 60 -63 145 -89 377 -117 94 -11 187 -25
208 -30 46 -14 70 -47 61 -86 -18 -74 -59 -129 -343 -460 -86 -99 -182 -215
-213 -257 -32 -42 -83 -110 -113 -151 -95 -127 -257 -270 -449 -395 -160 -104
-229 -106 -611 -16 -60 14 -154 28 -207 32 -132 8 -165 -5 -278 -112 -108
-103 -155 -129 -221 -123 -67 7 -106 40 -184 158 -78 119 -125 174 -163 189
-15 6 -74 17 -131 26 -259 38 -268 53 -575 1015 -72 227 -126 349 -176 397
-76 74 -230 63 -312 -24 -98 -103 -84 -189 162 -998 127 -420 123 -393 124
-785 2 -448 12 -489 166 -655 87 -94 118 -141 149 -225 11 -30 77 -248 146
-485 70 -236 174 -582 231 -769 177 -574 324 -1117 589 -2181 191 -770 235
-952 551 -2325 292 -1266 304 -1318 304 -1363 0 -33 -3 -36 -82 -72 -104 -47
-290 -95 -371 -95 -50 0 -103 14 -287 77 -324 110 -341 109 -527 -29 -133 -99
-288 -232 -415 -356 l-126 -124 18 -67 c46 -165 406 -944 531 -1148 23 -37 50
-88 60 -111 45 -104 -8 -75 -278 150 -246 205 -413 330 -468 348 -30 10 -40 8
-96 -20 -129 -66 -642 -425 -939 -659 -254 -200 -285 -237 -368 -447 -81 -201
-206 -675 -298 -1129 -41 -199 -47 -247 -48 -357 -1 -114 1 -129 20 -155 34
-45 163 -106 373 -177 316 -105 576 -165 664 -152 60 9 128 54 167 111 44 64
131 249 230 490 101 245 245 544 330 685 87 145 160 246 324 450 177 220 203
255 260 360 58 104 78 128 67 79 -16 -71 -85 -188 -225 -383 -110 -154 -189
-323 -285 -616 -103 -316 -151 -521 -151 -650 0 -139 12 -145 460 -240 563
-118 657 -149 1338 -434 139 -58 301 -122 360 -143 98 -35 116 -38 212 -38
101 0 108 1 175 36 39 20 120 68 182 106 132 83 372 207 568 293 76 34 171 80
210 103 95 55 177 140 206 214 23 56 24 67 24 348 l0 290 -42 148 c-62 213
-58 228 26 104 112 -167 377 -673 505 -967 104 -240 142 -312 187 -364 l43
-48 240 5 c137 3 297 12 371 22 166 22 345 22 452 2 46 -9 169 -36 275 -61
429 -98 588 -107 697 -37 25 17 89 66 141 111 176 149 242 165 445 110 61 -17
227 -51 370 -76 302 -52 524 -94 1085 -204 1124 -220 1165 -224 1495 -156 450
92 899 228 963 292 32 32 32 33 32 131 0 382 -114 738 -349 1096 -220 334
-255 342 -711 177 -353 -128 -267 -116 -1065 -150 -263 -11 -336 -22 -467 -70
l-87 -32 -138 62 c-76 33 -157 71 -180 83 l-43 22 36 59 c96 159 167 232 284
291 177 90 465 333 557 471 38 57 38 58 38 158 0 90 -4 110 -33 182 -61 152
-239 443 -407 664 -48 63 -102 147 -120 185 -52 111 -102 372 -195 1029 -75
531 -100 638 -230 991 -156 423 -280 813 -324 1023 -84 398 -123 1022 -113
1782 6 447 13 515 79 755 74 273 72 259 72 515 0 258 -11 356 -64 557 -65 248
-198 534 -303 650 -11 13 -18 25 -15 28 3 3 70 17 149 30 79 14 185 35 234 47
183 42 412 136 490 200 75 63 244 355 310 538 37 104 32 194 -25 385 -136 464
-872 2662 -1147 3425 -259 721 -302 805 -450 883 -119 62 -183 78 -340 86 -79
4 -145 10 -148 13 -3 3 4 45 16 94 19 80 21 106 15 259 -14 357 -62 658 -155
968 -84 278 -106 305 -291 365 -107 35 -712 182 -745 181 -16 0 -151 -35 -300
-78z m-4039 -6286 c174 -66 248 -131 360 -317 80 -134 104 -164 155 -199 75
-51 328 -93 524 -87 138 4 154 11 291 109 96 69 163 104 224 118 25 5 137 17
250 26 193 15 275 27 630 91 162 29 234 28 360 -5 124 -32 186 -60 238 -107
70 -62 99 -112 200 -340 116 -259 156 -339 262 -514 109 -180 154 -266 145
-279 -3 -6 -85 -36 -182 -67 -276 -88 -397 -142 -1273 -566 -278 -134 -597
-287 -710 -339 -247 -113 -275 -135 -336 -264 -79 -167 -113 -350 -94 -508 16
-135 60 -254 184 -504 129 -258 191 -364 503 -858 253 -403 458 -740 671
-1109 l150 -259 -40 -96 c-268 -648 -332 -767 -438 -821 -20 -10 -83 -31 -140
-45 -179 -45 -217 -72 -247 -174 -15 -52 -16 -54 -25 -31 -13 33 -63 258 -143
640 -236 1127 -502 2192 -711 2845 -218 683 -223 702 -613 2190 -201 768 -259
1002 -302 1207 -34 170 -36 251 -4 274 25 19 34 18 111 -11z m4315 -3601 c65
-36 173 -150 227 -241 56 -94 86 -163 188 -420 45 -116 126 -313 178 -437 155
-365 194 -476 261 -746 69 -278 96 -344 225 -544 122 -190 208 -356 305 -586
31 -74 253 -611 355 -861 198 -482 470 -1443 470 -1659 0 -41 -15 -113 -49
-232 -27 -95 -68 -249 -91 -343 -23 -93 -44 -171 -45 -173 -2 -2 -54 -10 -117
-17 -270 -32 -352 -81 -460 -277 -57 -103 -90 -133 -160 -146 -29 -6 -98 -18
-153 -27 -55 -10 -165 -35 -243 -56 -79 -22 -154 -39 -165 -39 -41 0 -201 245
-405 620 -50 91 -104 182 -121 202 -42 49 -122 86 -344 159 l-184 59 -6 98
c-4 53 -7 214 -7 357 -1 356 -13 578 -34 610 -23 35 -51 48 -346 152 -306 108
-391 147 -442 200 -34 36 -264 360 -274 388 -7 17 261 312 352 390 81 68 128
93 224 117 41 10 102 31 135 47 188 88 443 358 492 520 25 81 22 199 -6 291
-52 171 -143 321 -348 577 -66 81 -136 171 -155 198 -20 28 -115 234 -213 460
-204 470 -294 672 -406 905 -44 90 -77 170 -75 177 14 34 249 121 499 183 236
58 394 85 717 124 82 10 169 -2 221 -30z"/>
</g>
</svg>
