<?xml version="1.0" standalone="no"?>
<!DOCTYPE svg PUBLIC "-//W3C//DTD SVG 20010904//EN"
 "http://www.w3.org/TR/2001/REC-SVG-20010904/DTD/svg10.dtd">
<svg version="1.0" xmlns="http://www.w3.org/2000/svg"
 width="1280.000000pt" height="964.000000pt" viewBox="0 0 1280.000000 964.000000"
 preserveAspectRatio="xMidYMid meet">
<title>flower-right</title>
<metadata>
Created by potrace 1.15, written by Peter Selinger 2001-2017
</metadata>
<g transform="translate(0.000000,964.000000) scale(0.100000,-0.100000)"
fill="#c90606" stroke="none">
<path d="M2222 9235 c-46 -42 -67 -55 -91 -55 -46 0 -58 -28 -64 -150 -4 -92
-2 -109 15 -138 30 -48 56 -50 144 -8 42 20 86 36 99 36 27 0 124 -76 143
-112 8 -13 12 -40 10 -59 -4 -49 -35 -50 -95 -4 -53 41 -77 42 -106 3 -18 -24
-18 -30 -7 -58 20 -48 60 -63 144 -56 88 8 131 -12 141 -67 11 -58 -24 -99
-54 -63 -16 19 -95 40 -125 32 -14 -3 -33 -17 -42 -31 -15 -23 -15 -27 6 -59
26 -43 38 -47 138 -44 44 2 84 -1 89 -5 14 -15 6 -246 -11 -337 -37 -193 -104
-379 -214 -592 -80 -155 -94 -215 -67 -269 38 -75 88 -109 161 -109 45 0 51 3
97 52 64 68 149 241 181 369 49 193 57 442 20 610 -30 136 4 204 108 218 90
12 108 41 67 107 -31 51 -100 59 -114 14 -9 -28 -63 -70 -91 -70 -16 0 -28 8
-35 24 -22 46 38 114 140 160 51 24 63 56 34 94 -29 39 -65 49 -107 30 -26
-13 -35 -25 -40 -52 -4 -22 -16 -42 -31 -52 -23 -15 -27 -15 -50 0 -33 22 -42
60 -22 101 15 32 43 57 107 98 45 29 49 58 15 103 -20 27 -33 34 -59 34 -39 0
-66 -26 -66 -63 0 -29 -31 -67 -54 -67 -58 0 -114 179 -73 230 28 36 60 49
101 44 32 -5 47 -2 65 14 22 17 24 22 12 49 -7 16 -25 44 -41 61 -28 31 -32
32 -111 32 -76 0 -84 2 -116 30 -51 45 -80 41 -151 -25z"/>
<path d="M1390 8879 c-40 -16 -79 -60 -86 -95 -4 -22 1 -52 15 -89 29 -77 28
-129 -4 -160 -20 -21 -34 -25 -86 -25 -105 0 -160 -54 -167 -165 -4 -54 0 -71
27 -128 60 -126 179 -212 502 -362 212 -99 269 -132 302 -176 17 -23 18 -31 7
-63 -6 -20 -16 -38 -21 -41 -23 -15 -201 101 -404 265 -72 58 -199 118 -285
136 -86 18 -183 8 -250 -26 -102 -52 -152 -186 -118 -317 l11 -47 -37 -32
c-21 -18 -80 -49 -133 -69 -77 -31 -106 -48 -158 -97 -109 -101 -127 -199 -65
-358 35 -90 56 -116 188 -228 34 -29 80 -80 103 -113 89 -132 148 -178 238
-186 108 -10 277 51 461 167 47 29 119 74 160 100 146 92 249 140 324 151 101
16 136 32 136 63 0 14 -4 27 -9 30 -4 3 -11 20 -15 37 l-6 31 -62 -7 c-70 -7
-179 -34 -368 -89 -139 -41 -171 -41 -220 0 -55 47 -33 102 55 139 90 37 121
95 110 206 l-7 70 36 34 c40 37 99 52 158 40 18 -4 72 -33 121 -66 98 -65 149
-85 200 -75 50 9 71 37 64 83 -8 46 -93 223 -189 391 -39 68 -72 140 -75 160
-11 84 43 172 105 172 43 -1 106 -34 140 -76 55 -66 102 -195 117 -315 15
-129 57 -249 86 -249 28 0 66 162 75 316 12 195 -24 365 -121 570 -56 121
-113 204 -199 290 -105 105 -114 109 -281 110 -150 1 -176 7 -215 49 -48 51
-103 67 -160 44z"/>
<path d="M3500 8469 c-302 -41 -578 -382 -670 -827 -10 -49 -23 -99 -30 -112
-9 -17 -9 -25 4 -39 9 -10 16 -27 16 -39 0 -27 31 -44 73 -40 26 3 32 8 38 35
8 38 36 78 110 152 68 68 137 115 267 181 90 46 113 54 175 58 63 3 75 1 95
-17 12 -12 22 -31 22 -42 0 -92 -119 -183 -476 -362 -211 -107 -239 -125 -246
-162 -2 -16 2 -19 22 -17 20 3 23 1 13 -9 -19 -20 -16 -49 5 -49 11 0 45 9 78
21 214 74 446 97 648 64 230 -38 397 11 506 147 36 46 40 56 40 110 0 44 -8
75 -30 126 -18 38 -29 76 -26 88 3 12 30 49 60 82 88 99 96 171 35 319 -48
115 -123 187 -214 207 -17 4 -71 -2 -125 -14 -92 -19 -96 -19 -120 -1 -14 10
-38 41 -54 69 -16 27 -39 55 -50 60 -30 15 -102 19 -166 11z"/>
<path d="M3205 7189 c-149 -16 -433 -88 -472 -121 -37 -31 -1 -36 89 -12 82
21 84 11 4 -16 -62 -20 -96 -44 -82 -57 3 -3 42 2 85 12 106 24 284 17 386
-15 74 -23 199 -83 209 -99 9 -13 -29 -38 -87 -57 -27 -9 -51 -22 -54 -30 -3
-8 1 -35 8 -60 10 -35 26 -56 58 -83 72 -58 131 -122 131 -142 0 -60 -48 -103
-111 -101 -59 3 -105 32 -194 122 -168 171 -321 279 -454 320 -35 11 -69 20
-77 20 -15 0 -20 -45 -5 -54 4 -3 11 -19 14 -34 4 -21 24 -42 66 -74 72 -53
199 -199 282 -323 33 -49 94 -160 135 -245 42 -85 91 -188 111 -228 19 -39 55
-94 79 -121 46 -51 60 -79 22 -44 -39 36 -109 66 -163 71 l-52 4 -6 79 c-16
201 -137 431 -341 647 -75 79 -245 232 -258 232 -4 0 -8 -22 -8 -48 0 -63 35
-151 97 -243 62 -93 66 -103 49 -142 -17 -41 -45 -65 -83 -73 -26 -5 -37 -1
-58 20 -32 32 -36 32 -65 1 -23 -24 -24 -33 -22 -123 1 -53 -3 -111 -9 -130
-13 -39 -76 -89 -123 -98 -44 -8 -109 20 -147 64 -28 31 -31 41 -27 83 3 26
16 69 30 96 43 83 53 121 34 142 -9 10 -16 27 -16 39 0 34 -17 35 -78 5 -69
-34 -143 -38 -186 -9 -27 17 -28 21 -23 71 11 108 82 192 224 266 102 53 120
77 96 123 -9 17 -19 38 -23 46 -4 8 -18 21 -31 27 -32 17 -133 16 -167 -1 -15
-7 -49 -19 -77 -25 -80 -20 -243 -103 -331 -169 -132 -100 -228 -214 -305
-362 -32 -61 -34 -71 -34 -160 0 -86 4 -103 34 -173 42 -99 94 -165 171 -217
70 -48 109 -63 204 -79 89 -16 154 -47 177 -85 25 -41 24 -43 -13 -48 -50 -8
-95 7 -143 46 -61 50 -109 68 -180 68 -116 0 -226 -66 -277 -165 -22 -43 -26
-95 -13 -175 10 -60 2 -81 -61 -164 -107 -140 -113 -171 -60 -297 43 -102 103
-186 200 -280 52 -50 76 -80 76 -96 0 -13 5 -27 10 -30 5 -3 10 -17 10 -30 0
-13 11 -37 25 -53 30 -36 31 -46 5 -72 -26 -26 -83 -27 -109 -1 -11 11 -25 39
-32 63 -6 24 -21 72 -33 108 -19 56 -25 65 -48 68 -21 3 -30 -3 -42 -27 -17
-33 -21 -96 -7 -105 5 -3 12 -22 15 -41 5 -25 15 -39 36 -50 38 -19 38 -28 0
-55 -77 -55 -142 -17 -179 106 -18 59 -28 78 -48 87 -23 10 -28 8 -54 -21 -31
-35 -36 -61 -17 -95 7 -12 13 -31 15 -41 5 -27 20 -43 48 -50 42 -11 29 -35
-31 -63 -74 -34 -152 -36 -191 -6 -17 13 -27 28 -25 39 12 64 13 99 4 118 -6
11 -13 33 -16 47 -8 37 -30 42 -75 19 -44 -22 -57 -48 -66 -135 -6 -54 -11
-64 -50 -100 -23 -22 -46 -49 -49 -61 -6 -21 19 -107 50 -165 9 -19 17 -46 16
-62 -3 -38 27 -126 47 -136 9 -5 43 -14 75 -20 33 -6 70 -18 82 -26 32 -21 67
-19 88 4 14 16 17 31 12 73 -22 219 -26 204 64 272 64 47 123 71 147 57 11 -6
4 -16 -30 -44 -51 -42 -60 -63 -42 -103 7 -16 16 -42 19 -57 7 -30 45 -53 71
-43 22 8 43 64 51 133 4 32 15 72 25 89 21 35 73 64 115 64 25 0 26 -1 12 -17
-27 -31 -48 -81 -48 -113 0 -45 30 -129 49 -139 42 -22 72 18 86 119 18 126
34 138 148 115 243 -49 500 -198 759 -438 164 -153 232 -178 304 -115 66 58
80 130 45 226 -54 147 -265 325 -489 413 -162 63 -344 101 -473 98 -66 -2 -96
6 -127 34 -20 19 -31 75 -16 89 3 3 24 -5 47 -17 108 -61 400 -147 499 -147
50 -1 71 17 57 46 -14 26 -83 90 -172 158 -57 44 -79 70 -135 163 -73 122
-111 206 -112 247 0 39 29 107 51 118 26 14 104 12 143 -4 62 -26 132 -132
275 -422 74 -150 127 -214 176 -214 14 0 25 2 25 4 0 3 -13 44 -29 93 -67 200
-83 364 -56 568 9 71 17 130 18 131 1 1 30 -1 64 -4 59 -4 61 -5 53 -26 -4
-13 -16 -69 -25 -126 -31 -185 -7 -423 66 -642 29 -85 75 -158 101 -158 12 0
10 42 -8 117 -14 59 -14 81 -3 163 7 52 15 106 19 120 6 23 8 21 25 -24 21
-56 95 -173 144 -228 l32 -36 -21 -61 c-24 -74 -27 -116 -5 -107 10 4 15 -1
15 -14 0 -33 47 -20 104 30 30 27 39 30 51 20 13 -11 6 -22 -46 -81 -57 -64
-66 -89 -34 -89 9 0 12 -6 9 -15 -5 -12 4 -15 45 -15 50 0 131 32 185 73 17
13 28 10 102 -24 45 -22 89 -39 97 -39 9 0 35 -21 59 -46 l43 -46 91 7 c74 5
98 4 123 -9 84 -44 85 -190 1 -239 -65 -39 -116 -39 -279 -3 -35 8 -70 12 -78
9 -17 -7 -17 -52 2 -96 49 -117 -35 -205 -168 -177 -86 18 -126 47 -164 120
-37 71 -110 152 -155 171 -24 10 -32 9 -44 -3 -64 -63 -6 -281 128 -484 116
-177 283 -331 432 -399 124 -57 213 -67 306 -35 30 10 56 17 58 15 2 -2 -19
-16 -48 -30 -55 -28 -175 -55 -243 -55 l-41 0 29 -30 c25 -26 26 -30 10 -30
-24 0 116 -144 187 -193 50 -34 49 -31 64 -156 l6 -55 -28 18 c-126 81 -301
260 -406 416 l-16 25 -13 -30 c-23 -53 -16 -197 15 -305 78 -275 167 -426 309
-524 113 -77 214 -105 397 -111 l115 -3 37 -50 c80 -107 157 -150 247 -137
130 18 238 68 476 220 210 134 289 173 389 192 111 21 115 23 114 81 0 76 -3
78 -98 63 -45 -7 -156 -35 -247 -62 -172 -51 -214 -57 -258 -37 -22 10 -25 16
-18 37 4 14 7 44 8 66 0 37 3 42 39 60 67 34 80 62 84 176 l4 99 36 28 c30 23
45 27 96 27 64 0 62 1 186 -83 78 -52 129 -67 174 -52 79 26 68 115 -38 320
-166 318 -169 326 -161 366 3 21 20 50 36 67 27 26 35 29 74 24 53 -5 105 -42
139 -95 12 -20 41 -82 63 -137 32 -79 43 -122 51 -203 14 -136 53 -216 81
-164 5 10 20 66 31 123 19 90 21 127 17 279 -4 145 -9 192 -30 271 -48 182
-138 342 -263 465 -41 40 -74 75 -74 78 0 2 21 17 48 32 88 52 238 214 198
214 -10 0 -13 6 -10 15 4 10 0 15 -13 15 -11 0 -42 8 -69 17 -70 24 -155 113
-234 247 -80 135 -155 208 -272 266 -133 65 -260 84 -368 55 -76 -20 -113 -19
-144 6 -23 18 -27 28 -24 62 2 34 9 45 37 64 28 19 47 23 111 23 l77 0 185
-94 c204 -103 288 -137 393 -162 89 -20 193 -15 258 14 93 41 222 190 282 326
27 62 31 81 14 70 -8 -4 -9 0 -4 15 6 19 4 20 -18 10 -35 -16 -87 9 -243 119
-221 154 -346 205 -504 205 -102 0 -145 -11 -270 -69 -126 -57 -187 -71 -240
-55 -34 10 -40 16 -40 40 0 54 96 157 189 203 37 19 61 23 126 22 70 -1 104
-9 275 -67 240 -80 286 -90 381 -86 137 7 245 81 383 263 43 56 56 80 47 85
-7 5 -12 11 -11 15 1 4 -23 26 -53 49 -30 23 -99 79 -153 125 -54 46 -131 99
-170 118 -129 64 -273 56 -493 -27 -111 -41 -140 -46 -159 -27 -21 21 -13 47
28 92 74 80 187 126 428 172 250 47 361 97 452 202 72 82 129 229 156 399 6
40 4 45 -30 76 -83 76 -272 165 -408 193 -148 30 -258 0 -363 -98 -78 -73
-128 -150 -205 -318 -87 -189 -123 -240 -174 -240 -17 0 -18 5 -13 45 4 25 28
94 53 153 58 132 74 189 74 269 0 101 -58 225 -126 270 -26 17 -28 16 -88 -15
-132 -69 -234 -176 -272 -288 l-17 -52 -22 63 c-28 80 -68 137 -147 211 -82
75 -155 119 -265 157 -152 52 -311 67 -508 46z m949 -756 c3 -7 4 -13 2 -13
-4 0 -107 68 -115 75 -2 2 15 25 38 51 23 26 45 59 49 73 4 18 9 -6 14 -73 4
-55 9 -105 12 -113z m941 149 c-6 -5 -39 -29 -75 -54 -87 -61 -229 -202 -321
-318 -340 -431 -523 -851 -570 -1315 -13 -129 -7 -496 10 -575 5 -25 8 -46 7
-47 -1 -2 -29 37 -61 85 -47 71 -59 96 -62 137 -9 106 -48 192 -138 302 -26
31 -26 32 -9 65 9 18 18 34 19 36 1 1 19 -5 40 -14 50 -21 100 -11 122 23 26
39 23 270 -5 374 -35 129 -110 262 -224 393 l-34 39 23 48 c23 48 58 79 72 62
4 -4 18 -46 30 -93 44 -169 122 -290 186 -290 66 0 140 65 181 156 57 128 71
287 54 577 -10 164 -11 240 -3 295 12 82 32 114 61 96 31 -20 36 -79 22 -269
-12 -176 -12 -182 8 -228 20 -45 35 -55 57 -39 6 4 44 48 85 97 145 177 332
349 468 431 54 33 76 43 57 26z m-24 -912 c72 -20 76 -66 9 -100 -44 -22 -124
-26 -209 -10 -115 22 -227 30 -273 22 -69 -13 -59 2 21 31 138 51 368 80 452
57z m-1255 -286 c35 -31 73 -71 84 -89 23 -37 26 -102 7 -129 -13 -17 -19 -13
-80 49 -59 61 -66 73 -72 119 -3 28 -8 63 -11 79 -3 15 -3 27 1 27 4 0 36 -25
71 -56z m955 -354 c114 -22 155 -66 107 -117 -57 -62 -152 -69 -304 -23 -54
17 -132 34 -172 37 l-72 6 32 20 c113 68 284 101 409 77z m-138 -698 c85 -42
130 -94 123 -141 -7 -44 -32 -71 -67 -71 -21 0 -47 17 -96 61 -72 65 -114 91
-181 108 -23 6 -60 16 -82 21 -22 6 -38 15 -35 20 14 22 102 40 186 37 74 -3
96 -8 152 -35z m-3432 -112 c-13 -11 -32 -20 -43 -20 -28 0 -12 18 25 29 45
13 45 13 18 -9z m-202 -37 c-18 -20 -107 -63 -134 -63 -18 0 -18 2 5 21 40 32
93 58 119 59 21 0 22 -2 10 -17z m3434 -131 c9 -10 29 -49 45 -88 16 -38 38
-84 50 -103 20 -33 20 -33 1 -65 -24 -42 -23 -103 4 -179 16 -46 18 -62 9 -83
-15 -32 -51 -45 -105 -38 -88 12 -157 -75 -157 -197 0 -37 5 -80 10 -94 17
-45 78 -111 153 -168 90 -68 139 -95 357 -198 186 -87 236 -120 270 -173 17
-29 19 -38 9 -60 -10 -20 -17 -25 -33 -20 -41 12 -152 85 -251 164 -136 109
-235 174 -303 202 -83 33 -245 33 -318 0 l-50 -23 -60 29 c-83 41 -130 55
-191 56 -44 0 -52 3 -47 16 13 29 43 145 43 169 1 43 84 111 196 160 146 65
203 105 252 178 71 106 88 161 88 288 0 104 -2 115 -31 173 -17 34 -28 64 -26
67 13 12 70 3 85 -13z"/>
<path d="M5425 4544 c-16 -8 -53 -37 -81 -64 -43 -41 -59 -50 -88 -50 -60 0
-78 -27 -75 -113 1 -40 -2 -96 -6 -124 l-8 -53 44 -40 c26 -23 54 -40 68 -40
13 0 64 18 113 41 66 31 95 39 117 34 34 -7 127 -101 136 -138 23 -88 -29
-114 -105 -53 -55 43 -90 46 -119 10 -24 -30 -27 -58 -8 -74 6 -6 25 -22 41
-36 27 -24 35 -26 115 -24 128 4 129 3 151 -32 25 -41 26 -90 2 -112 -18 -15
-22 -15 -63 8 -62 34 -100 40 -143 22 -55 -23 -59 -58 -11 -104 38 -37 38 -37
144 -42 l106 -5 -1 -145 c-2 -156 -21 -276 -70 -433 -46 -145 -123 -326 -190
-445 -73 -133 -108 -231 -99 -280 6 -34 77 -111 125 -137 37 -19 94 -28 131
-20 75 17 203 213 267 410 65 198 88 475 56 665 -27 166 -29 210 -8 247 22 43
71 73 117 73 20 0 48 5 64 11 57 22 57 57 -2 115 -50 49 -93 58 -121 25 -59
-70 -84 -91 -108 -91 -32 0 -44 37 -26 79 16 39 31 52 130 109 104 59 112 79
50 130 -68 56 -150 44 -169 -24 -13 -46 -38 -74 -67 -74 -28 0 -44 27 -44 72
0 55 41 103 126 146 41 21 54 38 54 72 0 21 -76 86 -111 95 -35 9 -79 -28 -79
-64 0 -16 -10 -40 -21 -55 -32 -41 -59 -31 -93 33 -68 126 -15 259 94 238 37
-8 87 9 101 35 13 24 -14 67 -75 117 l-41 33 -81 -6 -81 -7 -45 34 c-59 45
-77 50 -113 31z"/>
<path d="M10352 4048 c-15 -24 -41 -65 -57 -93 -15 -27 -39 -63 -51 -78 -37
-44 -89 -137 -113 -202 -45 -120 -62 -231 -81 -520 -5 -88 -15 -204 -22 -258
-12 -107 -7 -128 30 -108 32 17 81 106 143 260 41 101 60 140 65 127 9 -23 -7
-73 -78 -246 -63 -155 -83 -249 -48 -230 36 19 129 112 183 183 57 74 124 197
151 277 71 214 81 467 26 675 -22 83 -97 255 -111 255 -4 0 -21 -19 -37 -42z"/>
<path d="M1480 3849 c-167 -21 -294 -65 -464 -159 -124 -69 -174 -113 -215
-190 -38 -72 -71 -214 -71 -312 0 -38 -4 -68 -10 -68 -5 0 -23 -19 -40 -42
-35 -48 -41 -118 -14 -157 60 -85 136 -121 217 -102 104 24 117 17 161 -90 19
-45 44 -83 77 -115 44 -44 53 -48 96 -48 95 0 218 94 310 236 24 38 89 160
142 271 101 208 145 272 205 301 38 18 96 22 96 6 0 -34 -77 -144 -239 -344
-44 -54 -99 -136 -123 -183 -42 -84 -43 -87 -43 -187 0 -90 3 -106 26 -151 58
-110 196 -201 265 -175 43 17 119 12 145 -9 13 -10 49 -65 79 -121 43 -80 71
-117 131 -175 64 -60 85 -74 129 -85 111 -27 257 20 312 99 26 39 74 81 226
199 44 35 99 88 123 118 39 51 42 58 42 118 0 139 -47 250 -205 486 -139 208
-153 233 -205 373 -30 85 -54 132 -76 155 l-32 33 -17 -22 c-21 -24 -24 -89
-7 -140 6 -19 31 -83 55 -144 52 -132 61 -200 37 -270 -19 -52 -67 -95 -106
-95 -11 0 -50 33 -95 81 -42 44 -85 86 -96 92 -12 6 -55 12 -96 13 -71 1 -116
14 -132 38 -14 21 -8 96 12 153 11 31 42 96 70 145 48 84 50 90 36 116 -25 48
-85 92 -125 92 -40 0 -117 -33 -216 -93 -55 -33 -122 -71 -150 -84 -27 -14
-68 -35 -90 -49 -68 -40 -177 -27 -205 25 -29 56 1 129 78 188 51 38 107 56
260 83 127 23 190 42 238 73 39 26 42 33 13 40 -12 3 -18 10 -15 15 8 13 -128
49 -234 62 -96 11 -166 11 -260 -1z"/>
<path d="M11210 3819 c-163 -102 -295 -242 -453 -482 -103 -156 -119 -190
-115 -240 3 -38 6 -42 31 -45 58 -7 231 98 263 160 8 15 21 28 30 28 10 0 1
-19 -30 -57 -51 -66 -73 -82 -136 -103 -43 -14 -45 -17 -47 -57 -2 -53 20 -74
85 -81 43 -4 53 -1 83 25 19 16 58 43 88 59 67 36 155 123 199 196 67 112 102
251 102 407 0 103 -16 232 -29 230 -3 0 -35 -18 -71 -40z"/>
<path d="M9780 3744 c-69 -30 -139 -116 -154 -189 -3 -16 -22 -176 -41 -355
-49 -444 -85 -657 -140 -810 -9 -25 -18 -63 -20 -85 l-4 -39 25 29 c110 132
238 372 298 557 36 111 76 287 76 332 0 14 5 26 12 26 8 0 9 -34 5 -127 -7
-142 -32 -265 -98 -481 -36 -117 -55 -212 -44 -212 6 0 112 164 148 230 149
271 208 603 158 899 -23 141 -42 186 -90 218 -39 26 -81 29 -131 7z"/>
<path d="M9221 3590 c-77 -186 -96 -247 -105 -330 -34 -323 -74 -590 -117
-768 -26 -113 -96 -329 -122 -377 -5 -11 -11 -35 -13 -55 l-2 -35 34 40 c173
199 323 450 395 660 18 51 28 70 28 54 2 -49 -47 -194 -128 -382 -45 -103 -81
-189 -81 -192 0 -4 5 -3 11 1 6 3 3 -8 -6 -26 l-17 -32 39 31 c70 56 163 175
222 282 84 155 130 331 138 534 8 196 -21 369 -89 532 -25 61 -92 179 -117
206 -4 4 -35 -60 -70 -143z"/>
<path d="M8714 3544 c-135 -202 -223 -416 -279 -679 -86 -401 -119 -515 -195
-670 -27 -55 -74 -133 -105 -174 -41 -54 -49 -70 -31 -57 33 21 34 7 1 -24
-14 -13 -23 -25 -21 -28 11 -10 140 90 221 172 160 161 267 352 392 691 l44
120 -6 -80 c-15 -206 -148 -556 -252 -666 -31 -32 -34 -41 -31 -84 3 -43 6
-49 30 -56 65 -17 172 33 201 93 9 19 26 43 37 53 81 73 191 275 229 420 78
298 32 668 -118 963 -55 107 -50 107 -117 6z"/>
<path d="M6551 3444 c-263 -70 -492 -386 -581 -799 -29 -134 -32 -186 -13
-207 30 -33 93 -20 93 19 0 34 79 133 156 197 69 57 221 145 293 171 24 8 67
15 96 15 43 0 57 -5 79 -26 81 -82 -13 -170 -401 -374 -233 -123 -275 -153
-255 -184 3 -6 5 -23 3 -38 l-2 -27 48 15 c252 78 388 101 541 90 52 -4 100
-10 106 -13 6 -4 21 -6 34 -4 30 3 28 -13 -4 -28 -15 -6 -24 -14 -21 -17 3 -3
20 2 38 12 19 9 60 18 96 19 58 2 62 1 49 -14 -20 -22 -18 -86 3 -104 60 -52
216 -48 272 6 13 13 51 41 84 62 165 107 302 308 369 538 42 144 57 253 63
450 l6 189 -89 -48 c-112 -60 -175 -106 -242 -178 -29 -31 -55 -56 -57 -56 -2
0 -6 13 -10 29 -16 73 -127 182 -200 195 -19 4 -63 0 -100 -9 -124 -28 -144
-21 -195 71 -12 23 -33 47 -47 53 -33 15 -147 13 -212 -5z m826 -794 c-29 -42
-112 -139 -119 -139 -21 -2 -2 27 59 90 67 70 85 84 60 49z"/>
<path d="M8180 3207 c-90 -68 -205 -182 -283 -284 -26 -34 -128 -182 -226
-330 -224 -338 -331 -472 -441 -556 -28 -21 -32 -28 -21 -36 12 -8 13 -12 1
-25 -22 -27 -4 -30 72 -11 221 53 450 217 624 447 65 87 63 85 74 68 31 -48 4
-97 -134 -240 -125 -129 -156 -182 -156 -260 l0 -50 58 29 c385 195 602 706
536 1264 -3 26 -9 47 -12 47 -4 0 -45 -29 -92 -63z"/>
<path d="M10809 2860 c-89 -18 -171 -50 -200 -76 -10 -9 -16 -27 -14 -47 1
-25 9 -36 36 -49 19 -10 50 -18 69 -19 31 0 32 -1 13 -9 -13 -5 -62 -15 -110
-21 -49 -7 -103 -18 -121 -25 -32 -13 -33 -15 -30 -61 3 -41 7 -49 36 -66 36
-21 117 -26 149 -8 14 7 31 7 54 0 66 -20 267 -23 369 -5 165 29 357 104 488
191 27 18 30 24 16 29 -13 5 -14 9 -4 21 15 19 18 16 -48 49 -202 102 -490
141 -703 96z"/>
<path d="M10329 2804 c-68 -72 -241 -224 -334 -294 -268 -202 -651 -396 -1012
-514 -605 -197 -1223 -227 -1763 -86 -64 16 -79 25 -108 59 -47 57 -146 129
-231 168 -82 37 -214 73 -274 73 -21 0 -66 12 -100 27 -69 30 -168 36 -222 14
-28 -12 -29 -13 -12 -26 22 -16 15 -21 -38 -30 -83 -14 -239 -57 -300 -81
-105 -42 -90 -72 19 -39 74 22 67 11 -10 -16 -61 -22 -85 -41 -71 -56 4 -3 35
2 71 11 85 21 249 21 335 0 104 -26 251 -98 251 -124 0 -4 -28 -19 -62 -32
l-63 -24 -1 -54 c-2 -59 -10 -48 109 -156 84 -77 93 -135 26 -169 -27 -14 -38
-15 -82 -4 -46 11 -65 25 -177 135 -69 67 -138 133 -155 147 -88 72 -229 145
-312 160 l-33 6 4 -57 c4 -52 7 -59 43 -87 57 -45 157 -150 224 -238 87 -114
164 -250 245 -433 79 -179 110 -229 179 -293 117 -108 294 -122 386 -30 43 43
39 45 94 -56 21 -38 86 -151 145 -250 59 -99 124 -211 145 -248 20 -37 38 -67
40 -65 10 12 99 266 116 332 41 160 36 409 -12 575 -11 36 -23 107 -28 158
-11 113 -42 176 -120 242 -113 96 -115 99 -97 124 32 44 56 96 62 134 l6 39
106 -28 c215 -56 340 -73 547 -72 638 1 1321 214 1866 580 198 133 380 289
554 475 106 112 94 108 -30 -11 -66 -63 -140 -131 -165 -150 -25 -19 1 9 57
63 56 54 129 129 163 167 66 74 78 95 19 34z"/>
<path d="M10345 2440 c-74 -11 -201 -47 -248 -71 -37 -19 -39 -23 -23 -34 16
-12 16 -14 1 -23 -15 -8 -13 -12 16 -30 53 -31 158 -60 327 -88 85 -14 164
-30 176 -35 17 -7 16 -8 -9 -4 -198 33 -467 44 -612 23 -83 -11 -101 -21 -63
-33 25 -8 16 -25 -13 -25 -53 -1 41 -32 211 -70 210 -47 262 -65 367 -125 177
-101 350 -148 550 -149 146 0 244 17 361 65 67 28 71 31 71 62 0 93 -243 320
-455 426 -193 97 -455 141 -657 111z"/>
<path d="M2830 2125 c-110 -50 -182 -161 -235 -360 -29 -110 -45 -258 -55
-525 -12 -288 -22 -362 -51 -391 -24 -24 -26 -24 -67 1 -40 25 -88 98 -108
167 -16 53 -21 218 -9 289 17 106 51 238 86 336 40 113 47 148 28 148 -7 0
-10 12 -7 30 4 27 3 29 -21 23 -14 -3 -52 -19 -85 -35 -153 -77 -261 -267
-285 -502 -31 -303 92 -620 314 -809 75 -65 220 -147 257 -147 27 0 85 59 94
96 13 54 72 158 194 344 196 299 274 479 300 691 40 342 -168 725 -350 644z"/>
<path d="M9868 2043 c-28 -4 -30 -9 -30 -58 0 -51 3 -58 35 -88 22 -21 26 -28
12 -23 -50 19 -170 37 -285 42 l-125 5 35 -20 35 -20 -40 -1 c-37 -1 -31 -6
105 -72 536 -259 868 -372 1218 -413 l53 -6 -16 25 c-12 18 -13 25 -4 28 32
11 -161 244 -290 351 -142 119 -270 188 -416 226 -77 21 -234 34 -287 24z"/>
<path d="M5160 1919 c-234 -87 -294 -119 -413 -216 -134 -110 -276 -324 -292
-440 -9 -69 10 -194 40 -256 55 -117 166 -205 293 -232 174 -37 207 -59 241
-158 70 -202 211 -339 389 -376 172 -36 338 22 417 145 34 52 95 99 195 149
102 51 146 92 177 164 26 62 28 74 28 216 0 129 -3 161 -23 225 -58 186 -231
418 -456 613 -61 52 -70 57 -79 42 -14 -26 0 -141 24 -186 11 -22 42 -73 69
-115 28 -42 50 -85 50 -96 0 -26 -62 -88 -88 -88 -11 0 -35 12 -53 27 l-32 27
-23 -28 c-22 -25 -24 -36 -24 -128 0 -115 -12 -151 -64 -186 -74 -50 -157 -31
-216 50 -39 53 -38 83 5 177 26 59 34 87 31 124 -4 67 -15 74 -68 43 -87 -51
-183 -44 -213 15 -21 39 -19 66 9 124 31 66 109 138 198 180 42 20 77 45 84
58 18 36 6 105 -21 123 -39 25 -122 27 -185 3z"/>
<path d="M9300 1803 c0 -3 10 -13 23 -24 l22 -18 -25 -1 -25 0 25 -21 c14 -11
109 -81 213 -155 103 -74 200 -147 215 -160 l27 -25 -35 17 c-19 9 -99 55
-178 101 -171 102 -350 182 -373 167 -5 -3 -9 -24 -9 -48 0 -31 8 -54 28 -82
34 -47 95 -101 131 -117 14 -7 60 -46 102 -87 150 -147 310 -247 696 -437 150
-73 275 -133 279 -133 13 0 -7 136 -32 220 -50 163 -123 281 -258 415 -169
167 -399 294 -642 355 -92 23 -184 39 -184 33z"/>
<path d="M8768 1634 c50 -30 50 -38 2 -24 -47 13 -48 6 -3 -20 68 -40 256
-187 333 -261 83 -79 82 -79 -42 15 -101 75 -246 162 -344 206 -78 36 -84 33
-84 -47 0 -47 4 -58 37 -94 20 -22 78 -76 130 -121 69 -59 104 -98 133 -147
67 -115 169 -205 315 -279 57 -28 195 -74 480 -160 72 -21 138 -43 149 -47 16
-7 17 -6 7 14 -7 12 -9 26 -6 31 8 13 -65 157 -127 250 -215 319 -516 553
-867 671 -138 46 -175 50 -113 13z"/>
<path d="M7585 1540 c4 -48 17 -70 145 -255 185 -266 222 -346 50 -108 -140
194 -211 276 -283 329 -69 51 -95 53 -116 10 -11 -25 -12 -43 -3 -102 13 -82
54 -193 87 -232 12 -15 28 -49 35 -77 23 -87 84 -217 144 -310 113 -173 238
-305 545 -576 233 -205 238 -209 246 -209 4 0 5 82 3 183 -4 150 -10 203 -33
302 -74 326 -226 598 -461 825 -95 91 -233 194 -321 239 l-42 21 4 -40z"/>
<path d="M8266 1515 c16 -24 15 -25 -1 -19 -39 15 10 -44 149 -181 148 -145
202 -207 230 -263 16 -32 16 -33 -1 -23 -10 5 -85 72 -168 147 -82 75 -187
166 -233 202 -76 59 -225 152 -244 152 -5 0 -8 -26 -8 -57 0 -79 24 -122 157
-288 73 -89 127 -167 150 -215 122 -258 306 -389 746 -535 110 -36 201 -65
203 -65 3 0 1 7 -4 16 -5 9 -7 25 -5 34 11 42 -125 334 -227 490 -145 220
-350 424 -545 543 -64 39 -174 87 -200 87 -14 0 -14 -3 1 -25z"/>
</g>
</svg>
