<?xml version="1.0" standalone="no"?>
<!DOCTYPE svg PUBLIC "-//W3C//DTD SVG 20010904//EN"
 "http://www.w3.org/TR/2001/REC-SVG-20010904/DTD/svg10.dtd">
<svg version="1.0" xmlns="http://www.w3.org/2000/svg"
 width="1280.000000pt" height="964.000000pt" viewBox="0 0 1280.000000 964.000000"
 preserveAspectRatio="xMidYMid meet">
<title>flower-left</title>
<metadata>
Created by potrace 1.15, written by Peter Selinger 2001-2017
</metadata>
<g transform="translate(0.000000,964.000000) scale(0.100000,-0.100000)"
fill="#c90606" stroke="none">
<path d="M10424 9265 c-25 -20 -47 -26 -115 -31 -90 -7 -116 -21 -145 -76 -31
-61 -10 -88 70 -88 36 0 52 -6 78 -29 29 -26 33 -35 31 -76 -2 -50 -38 -133
-65 -149 -23 -14 -55 15 -64 58 -10 46 -22 56 -70 56 -36 0 -46 -5 -63 -29
-21 -29 -27 -67 -13 -86 4 -6 32 -29 63 -52 60 -44 85 -87 75 -128 -15 -58
-75 -52 -96 10 -6 19 -21 42 -33 50 -57 40 -141 -3 -135 -67 3 -28 13 -38 77
-78 80 -48 117 -94 106 -130 -4 -13 -15 -20 -30 -20 -27 0 -81 42 -90 70 -5
15 -15 20 -45 20 -52 0 -92 -46 -88 -99 3 -36 4 -36 73 -54 122 -33 138 -65
111 -241 -28 -188 -18 -416 25 -585 35 -138 117 -303 190 -382 34 -37 39 -39
96 -39 72 0 116 25 151 85 40 69 28 124 -71 332 -144 301 -201 495 -213 730
-5 101 -4 136 6 148 9 11 34 15 99 15 93 0 98 2 124 40 55 79 -44 131 -151 79
-37 -18 -46 -19 -53 -8 -15 23 -10 65 10 90 17 21 30 24 117 29 113 7 127 12
143 46 15 34 14 55 -5 82 -21 31 -60 28 -114 -9 -24 -16 -51 -28 -60 -27 -17
4 -25 38 -16 74 8 30 113 114 142 114 12 0 54 -13 92 -30 84 -36 114 -37 141
-8 28 29 35 75 28 172 -8 111 -17 132 -62 140 -20 4 -53 22 -73 40 -84 74
-124 84 -178 41z"/>
<path d="M11285 8872 c-16 -11 -36 -26 -44 -36 -27 -33 -57 -40 -206 -46 -115
-5 -158 -10 -184 -24 -45 -24 -161 -142 -210 -214 -85 -126 -168 -328 -196
-477 -29 -154 -11 -431 37 -548 8 -20 17 -27 32 -25 30 4 59 86 85 235 34 196
88 312 168 364 76 47 133 36 167 -35 29 -61 21 -102 -39 -217 -207 -389 -235
-469 -180 -505 46 -30 122 -15 217 43 134 81 145 86 205 81 40 -4 62 -12 89
-34 l36 -29 2 -97 c1 -115 13 -137 98 -183 79 -43 89 -54 86 -89 -2 -22 -13
-37 -38 -54 -44 -30 -74 -27 -263 27 -131 38 -240 62 -333 75 -46 6 -43 11
-60 -90 -8 -41 8 -52 110 -74 113 -25 196 -65 406 -195 269 -167 407 -225 532
-225 106 0 161 33 246 149 30 42 108 128 173 191 108 107 119 121 145 190 36
94 40 213 10 270 -29 53 -119 135 -180 164 -31 14 -81 38 -111 52 -31 14 -69
37 -84 50 -26 22 -28 28 -20 57 13 46 10 156 -5 200 -36 98 -120 154 -249 164
-130 10 -278 -45 -424 -157 -169 -131 -315 -230 -359 -244 -16 -5 -23 0 -32
19 -32 70 -1 97 267 228 283 138 381 196 454 269 74 74 107 142 107 226 0 120
-39 168 -151 183 -93 13 -119 34 -119 94 0 24 7 62 15 85 30 85 10 151 -55
185 -40 21 -109 19 -145 -3z"/>
<path d="M9150 8468 c-23 -9 -47 -31 -75 -72 -23 -32 -49 -63 -59 -68 -12 -7
-46 -4 -110 8 -109 20 -147 15 -212 -29 -86 -58 -153 -186 -162 -308 -5 -78 7
-108 73 -189 25 -30 48 -64 51 -75 2 -11 -7 -48 -21 -82 -18 -46 -25 -81 -25
-131 0 -63 3 -73 33 -110 97 -121 226 -170 414 -158 386 25 498 18 701 -45
116 -36 142 -37 142 -8 0 12 7 27 16 34 22 16 11 48 -24 71 -15 10 -123 69
-240 130 -332 175 -442 259 -442 334 0 47 29 63 108 58 57 -3 85 -11 154 -45
184 -92 345 -227 388 -327 18 -42 22 -46 54 -46 41 0 66 8 66 22 0 6 7 24 15
42 15 30 13 41 -25 191 -22 87 -60 205 -84 262 -108 255 -296 455 -490 523
-73 26 -199 35 -246 18z"/>
<path d="M9210 7180 c-163 -35 -278 -89 -382 -180 -68 -59 -132 -148 -154
-212 l-17 -52 -30 65 c-62 131 -272 299 -343 274 -37 -13 -87 -80 -114 -152
-19 -49 -21 -73 -17 -153 4 -87 9 -107 60 -236 61 -153 69 -194 38 -194 -32 0
-67 53 -156 234 -97 198 -161 288 -247 352 -81 59 -148 78 -257 71 -142 -9
-363 -98 -465 -189 -54 -47 -57 -70 -26 -194 78 -308 195 -417 525 -488 303
-66 420 -110 489 -186 42 -47 46 -83 9 -88 -12 -2 -87 18 -165 44 -121 40
-158 48 -244 52 -122 6 -182 -9 -274 -69 -82 -53 -326 -254 -334 -276 -18 -45
188 -273 290 -320 54 -26 68 -28 179 -27 l120 0 205 68 c255 84 329 94 413 52
95 -46 187 -142 187 -194 0 -60 -99 -53 -267 17 -145 61 -212 75 -314 67 -144
-12 -258 -61 -462 -200 -156 -106 -202 -130 -238 -122 -24 5 -28 2 -34 -26
-15 -68 138 -299 248 -375 67 -45 115 -56 227 -51 126 6 208 35 473 165 l212
105 65 -7 c102 -11 130 -32 130 -96 0 -43 -37 -63 -103 -55 -209 27 -289 17
-435 -55 -107 -52 -175 -120 -275 -271 -42 -65 -81 -118 -85 -118 -9 0 -22
117 -22 196 0 52 -16 70 -71 79 -28 5 -56 20 -83 44 -105 95 -119 98 -197 45
-53 -36 -55 -36 -138 -32 l-83 5 -54 -49 c-29 -27 -56 -58 -59 -69 -16 -50 23
-79 109 -79 39 0 58 -5 75 -21 47 -44 53 -108 17 -184 -43 -94 -78 -97 -107
-10 -27 80 -74 96 -138 48 -49 -37 -60 -53 -61 -86 0 -21 9 -33 42 -55 23 -15
61 -46 85 -68 36 -35 43 -47 43 -80 0 -50 -11 -67 -41 -62 -17 2 -31 17 -50
53 -31 61 -62 80 -112 71 -47 -9 -107 -60 -107 -92 0 -25 8 -32 123 -104 78
-50 101 -80 95 -124 -5 -38 -38 -30 -92 22 -61 59 -73 64 -112 47 -50 -21 -95
-75 -92 -110 4 -35 31 -52 103 -61 39 -5 57 -13 87 -44 34 -34 38 -43 38 -89
0 -28 -7 -99 -16 -158 -13 -83 -15 -147 -10 -278 3 -93 8 -183 10 -200 3 -16
3 -21 0 -10 -51 187 -143 382 -239 503 -137 173 -280 252 -457 252 -86 0 -91
-1 -116 -29 -15 -15 -39 -47 -54 -70 -25 -37 -32 -41 -69 -41 -23 0 -70 5
-104 11 -34 7 -78 9 -98 5 -70 -13 -197 -141 -197 -200 0 -15 -16 -4 -67 45
-79 76 -126 109 -246 174 -55 30 -87 42 -87 33 2 -152 24 -428 39 -505 66
-321 189 -519 436 -698 99 -72 122 -79 226 -73 53 3 67 1 54 -7 -47 -28 -147
-108 -161 -129 -21 -34 -62 -51 -189 -80 -175 -40 -325 -58 -537 -63 -558 -16
-1099 109 -1639 376 -329 164 -535 307 -791 550 -92 87 -128 105 -61 30 35
-40 31 -45 -9 -11 -14 12 -18 12 -18 2 0 -21 296 -309 415 -404 491 -391 1103
-640 1760 -718 61 -7 209 -12 330 -12 237 0 307 9 522 63 62 16 115 26 118 23
3 -3 5 -16 5 -28 0 -12 16 -52 35 -89 l34 -67 -52 -46 c-133 -120 -151 -151
-173 -292 -8 -56 -24 -140 -36 -188 -19 -75 -22 -115 -23 -287 0 -180 2 -208
23 -280 35 -119 106 -308 117 -312 9 -2 92 135 308 512 38 66 71 122 73 124 2
3 17 -5 32 -17 66 -53 100 -64 186 -60 102 4 160 31 236 108 56 57 64 70 203
360 102 214 194 347 344 501 l123 126 0 52 c0 60 -6 62 -91 32 -135 -46 -221
-105 -395 -272 -166 -159 -206 -179 -274 -144 -63 32 -48 74 64 185 l76 74 0
57 0 56 -61 26 c-36 16 -58 31 -54 37 11 18 137 77 213 100 66 20 87 22 215
16 78 -3 161 -8 185 -12 52 -8 56 8 10 36 l-33 20 33 0 c17 0 32 4 32 9 0 28
-123 75 -300 115 -96 21 -105 25 -102 45 2 12 -2 21 -9 21 -7 0 -10 2 -7 5 2
3 59 -11 126 -30 66 -19 124 -35 129 -35 4 0 9 23 10 50 2 49 1 52 -40 81 -23
16 -114 69 -202 116 -347 187 -459 274 -435 338 27 71 119 77 244 17 186 -89
329 -209 380 -316 27 -57 51 -71 92 -56 29 11 38 46 30 113 -6 49 -4 47 22
-33 51 -151 144 -315 217 -378 30 -27 43 -32 88 -32 70 1 123 27 180 90 73 81
66 123 -66 385 -115 227 -188 423 -222 597 -8 40 -18 143 -22 229 l-6 156 99
8 c54 4 111 13 126 21 63 32 78 103 28 129 -42 22 -87 19 -149 -10 -41 -19
-57 -23 -67 -14 -18 15 -18 63 1 99 17 33 49 43 133 40 97 -4 110 -1 147 31
39 35 45 70 19 107 -22 32 -70 29 -127 -9 -60 -39 -91 -36 -95 9 -2 20 5 45
18 67 27 44 98 105 122 105 11 0 57 -16 104 -35 46 -19 94 -35 107 -36 19 -1
19 -2 -8 -14 -16 -8 -40 -14 -51 -15 -12 0 -29 -12 -39 -26 -15 -24 -15 -27 1
-52 28 -43 125 -135 182 -174 l53 -36 -79 -84 c-128 -139 -194 -255 -248 -434
-24 -79 -27 -110 -31 -287 -6 -198 0 -256 33 -374 11 -42 19 -53 35 -53 28 0
47 50 65 178 16 108 61 243 110 329 42 74 117 115 179 99 30 -8 65 -60 65 -98
0 -16 -49 -126 -109 -245 -151 -299 -167 -358 -116 -408 47 -48 114 -31 259
63 69 46 85 52 130 52 38 0 61 -6 87 -24 40 -27 49 -56 49 -154 0 -75 20 -115
73 -146 43 -26 45 -28 50 -84 2 -31 0 -63 -5 -69 -19 -23 -102 -13 -260 31
-187 53 -261 69 -308 64 l-35 -3 -3 -56 c-2 -37 2 -59 10 -66 7 -6 52 -20 100
-32 107 -25 174 -58 398 -196 417 -258 558 -277 707 -95 l55 67 126 6 c152 8
233 26 321 72 92 48 162 113 221 203 136 207 225 594 157 686 -10 14 -20 5
-72 -66 -72 -98 -225 -256 -314 -323 l-64 -49 7 69 c9 85 13 92 81 145 70 54
165 156 165 177 0 9 9 27 21 39 l21 22 -59 7 c-67 8 -179 32 -198 43 -8 4 30
7 83 7 87 0 105 4 174 33 284 122 578 497 613 783 9 69 -12 129 -45 129 -53 0
-98 -41 -180 -163 -37 -55 -68 -89 -95 -104 -82 -46 -183 -39 -225 15 -19 23
-21 35 -15 82 3 30 9 77 12 104 l5 49 -38 -6 c-22 -3 -83 -13 -137 -23 -112
-19 -153 -13 -206 32 -45 38 -58 92 -37 149 25 65 55 78 172 73 l93 -3 43 41
c25 24 71 53 108 69 127 52 119 52 200 11 88 -43 157 -49 191 -15 25 25 24 29
-35 101 -41 51 -56 78 -41 78 3 0 25 -16 51 -35 52 -40 76 -43 104 -15 24 24
25 57 4 124 l-16 52 54 71 c29 39 72 106 94 148 l41 77 14 -102 c10 -81 10
-117 1 -172 -16 -93 -15 -128 2 -128 42 0 106 145 148 330 20 90 23 131 23
290 -1 129 -5 205 -16 252 -15 65 -15 67 5 72 12 3 36 6 53 6 37 0 37 1 53
-123 24 -182 8 -349 -50 -544 -16 -56 -30 -107 -30 -113 0 -5 14 -10 32 -10
50 0 95 61 205 271 163 316 208 369 312 369 65 0 73 -4 95 -47 28 -56 21 -104
-33 -208 -73 -139 -116 -200 -185 -258 -103 -88 -186 -173 -186 -191 0 -23 47
-38 100 -32 35 5 21 -3 -61 -32 -208 -76 -392 -206 -488 -346 -108 -157 -64
-346 80 -346 58 0 103 28 239 150 107 94 244 200 335 257 151 95 431 196 497
180 30 -8 42 -34 63 -136 8 -41 22 -82 31 -92 68 -75 139 104 84 211 l-20 40
25 0 c41 0 93 -56 106 -115 6 -27 19 -75 28 -105 14 -50 19 -55 47 -58 36 -4
54 14 78 81 22 60 15 89 -29 123 -42 32 -45 49 -7 39 39 -9 105 -49 147 -90
l37 -34 -7 -131 c-5 -98 -4 -134 5 -145 16 -19 72 -19 108 -1 15 7 52 19 83
25 31 7 63 20 71 29 19 21 38 77 38 109 0 14 14 58 30 100 17 41 33 93 36 114
6 37 4 44 -34 82 -46 48 -56 70 -67 146 -5 40 -15 62 -35 82 -32 32 -74 46
-94 30 -21 -18 -37 -87 -35 -153 2 -50 -1 -63 -17 -75 -44 -32 -121 -28 -188
10 -50 28 -54 40 -18 53 22 9 33 23 46 59 9 27 16 61 16 75 0 36 -36 80 -64
80 -30 0 -50 -24 -70 -85 -42 -128 -104 -166 -177 -106 l-23 18 28 25 c71 61
76 228 6 228 -36 0 -43 -10 -74 -108 -41 -130 -49 -142 -103 -142 -51 0 -81
43 -49 70 8 6 25 41 37 77 18 56 35 80 104 154 138 148 214 284 215 384 0 54
-12 78 -107 216 l-43 61 3 107 c2 93 -1 111 -20 147 -60 112 -210 181 -335
155 -33 -7 -77 -28 -120 -57 -99 -68 -195 -74 -153 -10 22 34 85 62 186 85
108 24 129 33 201 83 68 48 115 108 161 205 30 64 32 74 32 183 l0 115 -45 78
c-140 245 -334 402 -619 501 -76 27 -119 36 -166 36 -85 0 -108 -12 -136 -71
-23 -49 -23 -50 -3 -75 11 -15 53 -46 94 -69 143 -81 220 -176 220 -272 0 -38
-4 -44 -32 -59 -39 -20 -103 -14 -168 15 -62 28 -77 27 -85 -9 -4 -16 -11 -32
-16 -35 -17 -11 -9 -60 22 -125 42 -88 48 -156 19 -193 -27 -34 -89 -67 -126
-67 -34 0 -110 44 -126 73 -7 12 -15 72 -18 138 -4 96 -8 121 -24 138 -24 26
-41 26 -73 1 -36 -28 -70 -25 -103 9 -50 50 -49 69 14 171 31 50 65 113 76
141 23 57 27 159 7 159 -21 0 -240 -203 -315 -292 -173 -206 -260 -385 -282
-575 -9 -81 -17 -93 -65 -93 -16 0 -54 -11 -82 -25 l-53 -24 36 52 c20 29 78
138 129 242 51 105 116 228 144 274 69 113 187 256 283 343 78 71 108 116 108
164 0 30 -25 31 -101 5 -132 -45 -248 -126 -432 -299 -134 -126 -181 -152
-241 -132 -42 13 -66 43 -66 81 0 19 20 45 81 104 82 79 109 121 109 173 0 26
-6 32 -65 57 -36 15 -68 31 -71 36 -9 15 172 97 252 115 59 13 104 15 207 10
73 -3 151 -8 175 -12 35 -5 42 -3 42 10 0 10 -17 24 -42 35 l-43 18 59 -5 c47
-4 58 -2 54 9 -10 35 -235 104 -434 134 -136 20 -337 18 -444 -5z m-762 -670
c10 -36 12 -109 7 -355 -7 -327 -2 -395 36 -512 49 -149 164 -238 250 -192 39
20 99 130 136 249 20 63 37 116 38 118 8 10 36 -16 58 -55 l25 -46 -52 -66
c-153 -191 -211 -327 -222 -520 -9 -139 1 -215 29 -242 21 -20 54 -22 131 -8
13 3 25 -5 35 -22 14 -25 13 -29 -31 -88 -62 -82 -97 -158 -112 -245 -12 -69
-46 -143 -94 -205 -18 -23 -19 -22 -10 50 5 41 8 191 5 334 -4 291 -18 387
-83 602 -48 159 -86 255 -159 398 -123 242 -292 481 -469 665 -61 63 -100 106
-86 94 107 -88 210 -189 313 -306 74 -86 127 -138 138 -138 11 0 28 15 40 33
19 31 20 42 14 242 -5 143 -3 219 4 238 16 42 42 31 59 -23z m-433 -861 c59
-11 128 -29 153 -39 l47 -19 -59 0 c-32 -1 -106 -8 -165 -17 -58 -9 -141 -14
-183 -12 -64 3 -81 7 -102 27 -14 14 -26 30 -26 37 0 46 160 57 335 23z m1030
-276 c-9 -74 -16 -86 -83 -155 -39 -40 -58 -54 -64 -45 -15 23 -8 92 12 122
16 26 128 134 139 135 2 0 0 -26 -4 -57z m-785 -359 c77 -18 182 -63 174 -75
-3 -5 -20 -9 -38 -9 -18 0 -86 -13 -152 -30 -124 -31 -229 -38 -267 -19 -35
18 -67 51 -67 69 0 66 192 102 350 64z m186 -665 c24 -6 44 -15 44 -20 0 -4
-18 -13 -40 -19 -22 -5 -57 -14 -78 -20 -46 -12 -109 -51 -181 -113 -62 -53
-100 -61 -125 -25 -45 64 20 147 152 194 46 16 168 18 228 3z m-6 -299 c0 -6
-10 -30 -22 -53 -17 -33 -23 -64 -26 -143 -5 -122 13 -201 64 -285 51 -84 118
-139 246 -202 190 -93 211 -114 241 -247 9 -36 18 -72 22 -81 5 -13 -5 -17
-58 -22 -41 -4 -93 -19 -146 -42 l-83 -37 -47 19 c-36 14 -73 18 -166 18 -109
0 -125 -2 -177 -27 -67 -31 -151 -87 -268 -178 -97 -75 -190 -139 -239 -164
-30 -16 -35 -16 -49 -2 -14 14 -14 19 1 51 24 50 78 85 304 195 232 113 291
149 386 239 89 84 97 101 97 202 0 144 -50 209 -160 209 -63 0 -100 20 -100
53 0 12 7 44 15 71 19 62 19 139 1 174 -13 25 -11 34 36 132 28 58 55 111 60
118 13 15 68 16 68 2z m-2030 -1769 l45 -8 -37 -2 c-20 0 -73 -12 -116 -26
-44 -14 -101 -28 -128 -31 -62 -8 -183 -40 -240 -65 l-44 -18 11 20 c6 12 9
41 7 65 l-3 44 36 0 c19 0 57 -7 83 -16 51 -17 71 -12 41 10 -18 13 -16 15 25
24 54 12 258 14 320 3z"/>
<path d="M2371 4033 c-96 -192 -129 -408 -100 -648 26 -215 110 -401 258 -573
45 -52 127 -122 143 -122 13 0 9 52 -7 108 -9 29 -41 116 -71 193 -62 160 -70
222 -10 78 86 -206 137 -289 176 -289 24 0 26 36 10 200 -5 58 -17 190 -25
294 -9 105 -25 231 -35 280 -22 102 -79 229 -143 320 -24 34 -65 96 -91 139
-26 42 -54 77 -62 77 -7 0 -27 -26 -43 -57z"/>
<path d="M1502 3843 c-4 -10 -7 -103 -7 -208 1 -179 2 -195 28 -270 53 -159
128 -253 288 -360 88 -59 102 -65 148 -65 69 0 94 24 89 85 -3 42 -3 42 24 33
15 -5 39 -8 55 -6 26 3 28 7 31 50 3 52 -10 83 -85 201 -145 226 -313 411
-459 507 -83 54 -101 59 -112 33z"/>
<path d="M10990 3845 c-95 -18 -154 -38 -182 -64 -21 -20 -21 -21 -3 -41 26
-29 102 -54 255 -85 152 -31 216 -52 265 -89 72 -55 99 -146 56 -189 -15 -16
-36 -22 -83 -25 -62 -3 -66 -2 -183 64 -266 147 -323 174 -369 174 -53 0 -103
-31 -130 -81 l-19 -35 63 -127 c54 -108 65 -137 68 -191 4 -60 2 -65 -21 -81
-16 -10 -60 -20 -109 -24 -46 -4 -92 -13 -103 -19 -11 -6 -54 -45 -95 -86 -45
-46 -83 -76 -95 -76 -25 0 -80 54 -94 93 -24 62 -12 126 60 315 44 115 52 199
23 241 l-16 22 -25 -23 c-31 -29 -50 -65 -102 -200 -41 -103 -60 -136 -225
-393 -43 -66 -93 -152 -112 -192 -54 -111 -78 -255 -54 -318 15 -40 94 -119
226 -226 67 -55 138 -119 158 -143 73 -90 234 -132 343 -91 70 27 167 130 243
258 36 60 73 113 84 119 10 6 42 9 70 8 143 -7 141 -7 202 35 68 47 130 123
145 180 6 22 9 83 7 135 -6 129 -32 180 -204 400 -128 164 -195 262 -192 279
2 11 12 15 33 12 82 -9 123 -61 247 -306 125 -249 160 -306 233 -384 76 -80
145 -120 221 -128 l55 -6 49 51 c28 29 66 85 88 129 l38 78 96 -3 c110 -3 147
10 206 70 61 64 61 151 2 217 -25 27 -30 42 -36 109 -14 173 -60 308 -130 378
-105 104 -366 224 -563 258 -113 19 -287 19 -391 1z"/>
<path d="M2884 3740 c-72 -46 -110 -229 -101 -484 10 -290 75 -494 244 -763
35 -57 69 -103 74 -103 18 0 8 60 -41 235 -69 246 -81 312 -86 445 l-4 115 14
-70 c37 -191 99 -373 182 -535 46 -90 144 -244 188 -295 l25 -30 1 36 c0 20
-13 79 -29 130 -52 170 -81 345 -136 828 -20 172 -43 330 -51 349 -54 130
-191 199 -280 142z"/>
<path d="M3467 3683 c-81 -135 -125 -255 -153 -417 -22 -122 -14 -393 14 -516
36 -153 93 -283 180 -405 74 -106 202 -229 202 -196 0 5 -4 13 -10 16 -5 3
-10 17 -10 31 0 14 -32 102 -71 196 -69 167 -129 331 -129 352 0 6 18 -32 39
-85 71 -180 184 -367 330 -549 l76 -94 3 36 c2 22 -7 59 -21 95 -92 220 -150
482 -207 938 -17 133 -37 266 -46 296 -33 109 -140 359 -155 359 -4 0 -23 -26
-42 -57z"/>
<path d="M4003 3608 c-22 -27 -82 -157 -112 -241 -59 -168 -75 -270 -75 -482
0 -164 3 -202 22 -279 39 -156 127 -330 226 -447 23 -27 53 -64 68 -83 47 -57
150 -92 197 -67 17 10 21 21 21 62 0 44 -5 56 -36 92 -77 90 -190 362 -229
555 -25 124 -14 129 29 12 56 -154 158 -361 230 -469 107 -160 376 -405 376
-342 0 5 -7 14 -15 21 -11 9 -12 15 -5 20 6 4 -11 39 -46 90 -113 169 -168
311 -234 601 -99 432 -131 534 -226 719 -67 129 -144 244 -165 248 -9 2 -21
-3 -26 -10z"/>
<path d="M4515 3253 c-14 -37 -18 -299 -6 -403 41 -350 193 -650 414 -816 53
-40 165 -104 182 -104 3 0 5 26 5 58 0 77 -30 127 -160 267 -56 61 -110 126
-120 146 -17 33 -17 79 -1 79 4 0 29 -30 56 -67 69 -94 216 -237 308 -301 92
-63 218 -124 303 -146 93 -24 103 -22 101 17 -2 27 -19 50 -92 123 -99 99
-177 205 -429 576 -219 322 -315 432 -482 551 -58 42 -69 44 -79 20z"/>
<path d="M1589 2865 c-107 -18 -182 -41 -278 -86 -70 -32 -83 -42 -78 -58 3
-11 0 -22 -7 -25 -36 -16 184 -134 344 -184 145 -46 227 -56 397 -48 155 7
173 8 251 4 98 -5 132 19 132 92 0 46 -2 49 -32 59 -18 5 -62 15 -98 21 -36 6
-76 13 -90 17 -24 5 -23 6 10 15 47 13 70 35 70 70 0 38 -26 61 -96 88 -132
49 -353 64 -525 35z"/>
<path d="M2109 2434 c-240 -43 -454 -156 -638 -336 -89 -88 -131 -150 -131
-195 0 -28 6 -35 39 -53 124 -63 342 -93 521 -71 144 18 231 45 395 125 173
85 192 91 420 147 93 22 178 45 189 51 19 10 18 11 -5 24 -19 10 -20 13 -6 14
9 0 17 7 17 15 0 24 -63 30 -311 30 l-236 0 86 16 c124 24 209 48 253 70 41
21 45 28 26 47 -9 9 -9 12 0 12 31 0 7 30 -40 50 -111 48 -231 70 -372 69 -72
0 -165 -7 -207 -15z"/>
<path d="M9855 2126 c-44 -19 -119 -104 -154 -174 -17 -34 -43 -101 -57 -149
-23 -75 -27 -107 -28 -223 -2 -263 61 -420 348 -874 49 -76 106 -177 127 -223
62 -133 103 -157 192 -112 245 124 409 336 479 615 31 124 30 333 -1 449 -50
185 -143 314 -273 380 -97 48 -104 47 -112 -18 -6 -46 -1 -71 34 -183 76 -238
98 -374 81 -517 -12 -101 -54 -193 -106 -233 -37 -28 -48 -29 -68 -9 -26 25
-37 109 -52 399 -17 315 -34 451 -72 570 -73 234 -211 358 -338 302z"/>
<path d="M2723 2040 c-139 -20 -301 -92 -433 -191 -142 -108 -352 -342 -356
-399 -1 -15 -7 -37 -14 -50 -10 -19 -10 -21 7 -17 10 3 45 8 78 12 294 32 656
155 1166 398 130 61 169 87 135 87 -23 0 -20 17 4 25 36 11 21 25 -22 20 -24
-2 -88 -7 -143 -10 -55 -3 -128 -11 -162 -18 l-62 -13 25 29 c26 32 34 103 12
125 -13 13 -149 14 -235 2z"/>
<path d="M7468 1929 c-40 -15 -62 -94 -38 -140 6 -10 43 -37 83 -59 96 -52
151 -101 187 -164 39 -67 39 -109 1 -147 -38 -38 -94 -39 -169 -4 -30 14 -60
25 -67 25 -36 0 -33 -99 5 -195 37 -94 38 -122 1 -172 -63 -88 -159 -96 -230
-19 -21 23 -26 41 -35 145 -9 95 -15 126 -32 148 l-21 27 -32 -27 c-18 -15
-42 -27 -53 -27 -25 0 -78 52 -78 77 0 10 27 63 60 118 33 54 65 115 70 135
13 46 13 147 0 155 -16 10 -74 -37 -195 -159 -167 -169 -285 -338 -337 -486
-20 -58 -23 -83 -23 -240 0 -171 1 -176 28 -232 35 -71 69 -101 192 -169 80
-44 111 -69 176 -140 102 -112 161 -141 297 -147 238 -11 409 112 514 371 16
39 37 80 46 91 23 25 81 49 172 71 240 58 372 231 358 472 -6 114 -88 262
-222 402 -90 93 -169 150 -287 205 -185 87 -296 112 -371 85z"/>
<path d="M3378 1790 c-302 -65 -562 -211 -759 -425 -73 -80 -113 -140 -160
-239 -62 -133 -103 -346 -66 -346 20 0 543 263 654 329 121 72 208 137 323
240 47 42 105 90 129 106 25 17 62 52 83 78 34 43 38 55 38 104 l0 56 -34 -6
c-50 -8 -179 -67 -314 -143 -64 -36 -133 -75 -152 -86 -52 -29 -21 -5 199 155
120 87 188 143 178 145 -19 4 -22 18 -7 27 16 10 11 25 -7 24 -10 0 -57 -9
-105 -19z"/>
<path d="M3925 1629 c-407 -135 -776 -451 -962 -824 -39 -78 -62 -155 -46
-155 10 0 337 100 478 147 232 76 362 166 468 323 28 41 83 104 121 140 39 36
97 90 128 121 l58 56 0 67 c0 52 -4 68 -16 73 -21 8 -191 -78 -317 -161 -54
-35 -93 -58 -87 -51 17 21 220 177 273 210 55 35 60 50 15 41 l-33 -6 33 20
c17 11 32 22 32 25 0 13 -62 1 -145 -26z"/>
<path d="M5089 1511 c-363 -240 -594 -575 -700 -1016 -27 -110 -41 -485 -19
-485 13 0 143 112 389 335 158 142 293 289 370 400 54 78 142 248 161 310 6
22 34 85 61 140 71 145 99 280 69 336 -36 67 -166 -31 -327 -246 -107 -142
-110 -140 -10 6 47 70 98 148 112 174 27 52 34 115 12 115 -8 0 -61 -31 -118
-69z"/>
<path d="M4399 1492 c-325 -163 -631 -523 -802 -942 -37 -91 -53 -180 -33
-180 25 0 365 118 457 159 217 95 364 215 448 367 71 126 98 168 199 297 120
155 142 198 142 277 0 52 -3 60 -19 60 -39 0 -260 -162 -441 -323 -102 -91
-187 -163 -189 -161 -6 6 66 98 114 144 26 25 96 98 157 163 92 97 111 124
114 152 2 32 0 35 -25 35 -15 0 -70 -21 -122 -48z"/>
</g>
</svg>
