<?xml version="1.0" standalone="no"?>
<!DOCTYPE svg PUBLIC "-//W3C//DTD SVG 20010904//EN"
 "http://www.w3.org/TR/2001/REC-SVG-20010904/DTD/svg10.dtd">
<svg version="1.0" xmlns="http://www.w3.org/2000/svg"
 width="1569.000000pt" height="1280.000000pt" viewBox="0 0 1569.000000 1280.000000"
 preserveAspectRatio="xMidYMid meet">
<title>spiral-right</title>
<metadata>
Created by potrace 1.15, written by Peter Selinger 2001-2017
</metadata>
<g transform="translate(0.000000,1280.000000) scale(0.100000,-0.100000)"
fill="#fced77" stroke="none">
<path d="M6323 12783 c-21 -8 -15 -35 32 -147 85 -204 179 -519 235 -790 50
-246 75 -588 67 -946 -7 -338 -25 -483 -83 -692 -79 -278 -84 -301 -91 -359
-6 -63 -8 -61 124 -147 39 -26 118 -86 175 -133 196 -163 345 -255 399 -247
17 2 45 33 101 113 356 506 654 1112 768 1564 75 297 110 655 79 800 -30 141
-169 250 -623 491 -320 170 -457 234 -791 368 -304 122 -358 139 -392 125z"/>
<path d="M4940 12590 c-617 -10 -707 -21 -981 -116 -154 -53 -239 -99 -239
-129 0 -13 57 -80 304 -361 457 -519 842 -1056 1039 -1450 128 -256 212 -484
247 -677 17 -93 4 -88 350 -147 302 -53 447 -73 463 -67 9 3 23 30 32 59 27
95 165 699 171 752 3 28 1 92 -5 141 -6 50 -20 189 -31 310 -36 393 -87 783
-122 945 -68 316 -209 678 -284 727 -31 20 -276 24 -944 13z"/>
<path d="M3235 12002 c-178 -63 -455 -201 -709 -354 -273 -164 -413 -276 -663
-530 -149 -152 -183 -200 -152 -218 7 -5 42 -16 78 -25 259 -65 766 -325 1221
-628 406 -269 818 -624 1126 -969 63 -70 123 -129 134 -133 13 -4 144 49 407
165 214 94 395 174 403 179 32 17 21 60 -73 267 -52 115 -146 326 -208 468
-153 352 -233 495 -462 826 -360 520 -660 844 -874 946 -82 39 -131 40 -228 6z"/>
<path d="M8556 11848 c-8 -13 -35 -126 -61 -253 -133 -657 -234 -1004 -371
-1276 -60 -121 -127 -269 -196 -439 -64 -156 -99 -224 -190 -368 -94 -148
-128 -220 -128 -272 0 -106 104 -606 137 -659 22 -35 55 -25 233 70 289 153
675 397 845 534 217 174 755 698 830 809 39 57 40 61 39 140 0 68 -7 101 -42
204 -138 406 -538 1056 -836 1354 -94 95 -203 178 -232 178 -8 0 -20 -10 -28
-22z"/>
<path d="M1653 10470 c-63 -14 -154 -100 -448 -420 -346 -377 -500 -563 -582
-701 -70 -118 -203 -411 -203 -446 0 -15 8 -27 23 -32 12 -5 126 -16 252 -26
489 -34 934 -93 1325 -175 462 -96 691 -175 1281 -443 91 -41 187 -82 214 -91
47 -17 47 -17 84 11 20 15 155 145 300 289 l264 261 -6 39 c-11 69 -109 197
-287 375 -188 189 -335 314 -635 539 -581 436 -1086 728 -1382 800 -98 23
-159 29 -200 20z"/>
<path d="M9934 9813 c-617 -643 -1142 -1079 -1715 -1422 -75 -44 -144 -90
-154 -101 -18 -20 -169 -516 -181 -596 l-6 -44 164 0 c173 0 380 17 608 51
335 49 970 183 1207 255 122 37 288 105 310 127 17 16 49 138 93 351 87 425
97 704 35 1041 -34 183 -103 504 -115 533 -5 12 -16 22 -24 22 -7 0 -108 -98
-222 -217z"/>
<path d="M5655 9190 c-396 -50 -673 -134 -927 -282 -48 -27 -68 -45 -68 -59 0
-25 18 -32 160 -58 105 -20 219 -52 340 -96 64 -23 241 -114 370 -190 311
-185 579 -446 754 -738 l70 -115 147 -46 c202 -64 214 -66 232 -30 25 50 56
185 67 293 13 133 13 447 -1 587 -26 268 -100 574 -152 622 -33 31 -124 70
-234 99 -92 25 -114 26 -353 29 -201 2 -287 -2 -405 -16z"/>
<path d="M7065 8638 c0 -247 -1 -259 -38 -478 -21 -124 -51 -308 -68 -410 -16
-102 -38 -237 -48 -300 l-18 -115 65 -185 c60 -170 65 -192 66 -270 0 -62 -5
-103 -22 -154 -40 -125 0 -114 153 39 253 254 378 537 415 945 13 137 7 238
-20 370 -51 249 -221 564 -414 768 -71 75 -71 75 -71 -210z"/>
<path d="M717 8449 c-150 -17 -147 -16 -173 -73 -25 -56 -263 -722 -312 -878
-51 -157 -120 -435 -136 -543 -22 -150 -36 -359 -36 -552 0 -182 3 -203 28
-203 8 0 112 49 231 108 240 120 400 186 661 272 424 141 654 185 1630 315
267 35 509 69 538 75 63 14 82 31 82 74 0 69 60 202 293 649 27 51 29 60 16
73 -37 36 -671 280 -984 379 -374 117 -755 218 -940 249 -49 8 -115 20 -145
25 -179 34 -582 50 -753 30z"/>
<path d="M4574 8440 c-73 -36 -231 -206 -459 -490 -155 -195 -242 -320 -270
-389 -39 -96 -105 -330 -105 -373 0 -54 20 -58 89 -19 88 51 255 129 381 178
201 79 460 134 730 154 l145 11 248 -41 c136 -22 267 -41 290 -41 75 0 298
125 395 221 47 47 49 56 26 102 -109 212 -758 584 -1194 683 -132 30 -220 31
-276 4z"/>
<path d="M10110 7715 c-812 -234 -1512 -364 -1978 -366 -199 0 -227 -7 -274
-60 -96 -111 -238 -332 -238 -371 0 -23 29 -44 161 -115 501 -272 1097 -433
1604 -433 l130 0 326 468 c347 497 414 601 506 786 62 124 64 148 12 153 -13
1 -125 -27 -249 -62z"/>
<path d="M10853 7398 c-12 -13 -47 -68 -78 -123 -196 -341 -482 -687 -810
-981 -93 -83 -171 -159 -173 -168 -5 -23 73 -111 183 -210 159 -141 442 -323
985 -631 157 -89 461 -263 675 -387 543 -314 803 -456 1150 -628 657 -326 945
-413 1108 -335 191 91 553 527 954 1150 231 359 514 847 588 1015 70 159 161
417 200 570 24 90 24 96 8 108 -21 15 -2 16 -498 -39 -531 -58 -593 -62 -855
-56 -407 11 -823 65 -1365 178 -439 92 -1139 280 -1600 430 -104 34 -225 72
-268 85 -42 13 -86 28 -96 34 -34 18 -86 12 -108 -12z"/>
<path d="M5005 7199 c-158 -20 -811 -207 -986 -282 -46 -20 -52 -30 -72 -103
-27 -97 -40 -266 -34 -439 6 -174 22 -253 92 -455 71 -204 256 -545 292 -538
9 2 74 100 147 221 227 377 384 586 611 812 125 126 181 173 387 323 l56 41 8
68 c7 74 0 335 -11 352 -8 13 -386 13 -490 0z"/>
<path d="M2885 6629 c-363 -19 -690 -77 -1105 -193 -361 -101 -720 -232 -1120
-410 -242 -107 -222 -96 -242 -137 -31 -63 -41 -197 -35 -479 9 -355 31 -541
101 -825 62 -250 148 -480 281 -745 97 -193 112 -215 143 -206 12 4 86 69 165
144 743 713 1401 1183 2236 1602 100 49 190 99 201 110 19 19 20 34 20 579 l0
558 -67 6 c-86 9 -395 6 -578 -4z"/>
<path d="M7331 6550 c-30 -11 -121 -60 -203 -109 -81 -49 -170 -97 -197 -106
-56 -18 -64 -29 -46 -71 44 -105 484 -600 765 -862 338 -315 489 -404 655
-389 179 17 434 147 691 353 253 202 500 493 492 579 -3 29 -6 31 -93 52 -126
31 -396 79 -545 98 -230 28 -337 56 -590 157 -130 52 -157 63 -532 222 -253
107 -290 114 -397 76z"/>
<path d="M5514 6501 c-62 -39 -243 -242 -378 -424 -204 -275 -386 -591 -422
-736 -34 -137 8 -214 220 -401 298 -263 687 -523 882 -590 61 -21 173 -35 209
-26 15 4 25 13 25 24 0 9 -25 89 -54 178 -133 394 -210 834 -222 1274 -5 161
-3 228 10 309 25 161 30 147 -86 267 -56 58 -114 114 -128 124 -26 18 -27 18
-56 1z"/>
<path d="M6385 6149 l-160 -28 -67 19 c-36 11 -71 20 -76 20 -19 0 -25 -111
-13 -234 66 -706 73 -758 130 -981 38 -149 87 -278 162 -426 46 -93 81 -135
125 -154 74 -31 231 -57 374 -62 123 -5 162 -2 260 16 216 42 954 220 1015
245 40 17 43 33 16 91 -22 49 -80 103 -292 269 -558 440 -926 806 -1146 1144
l-74 112 -47 -1 c-26 -1 -119 -14 -207 -30z"/>
<path d="M9876 5466 c-51 -35 -179 -126 -282 -202 -372 -273 -464 -325 -808
-466 -66 -26 -123 -53 -127 -60 -11 -18 5 -50 89 -182 182 -284 597 -854 852
-1171 485 -600 1076 -1196 1505 -1517 182 -136 338 -238 367 -238 71 0 603
227 933 399 523 272 821 487 1196 861 184 184 281 296 358 414 57 87 61 109
29 130 -13 8 -142 62 -288 119 -658 259 -1284 547 -1885 865 -659 349 -1059
595 -1736 1070 -33 23 -71 42 -84 42 -14 0 -67 -29 -119 -64z"/>
<path d="M3655 5220 c-755 -432 -1410 -857 -1710 -1109 -114 -96 -411 -394
-470 -473 -63 -84 -73 -124 -52 -207 23 -89 154 -354 264 -531 49 -80 127
-208 173 -285 157 -263 270 -424 390 -555 151 -164 594 -614 643 -652 34 -28
40 -29 54 -16 8 9 37 76 63 149 27 74 91 253 143 399 90 251 167 464 222 610
286 772 512 1205 946 1820 51 72 59 90 55 115 -4 17 -59 127 -123 245 -64 118
-155 287 -203 375 -107 197 -136 245 -154 245 -7 0 -116 -59 -241 -130z"/>
<path d="M4813 4456 c-55 -63 -379 -510 -525 -726 -297 -438 -328 -505 -599
-1320 -139 -418 -201 -632 -226 -781 l-17 -96 29 -59 c85 -176 519 -496 1170
-864 289 -163 492 -261 680 -328 137 -49 281 -66 320 -38 22 16 20 39 -21 281
-26 155 -27 176 -31 633 -6 566 -8 523 92 1692 9 102 22 266 31 365 8 99 21
243 29 320 21 200 22 272 5 289 -8 7 -68 45 -132 85 -156 96 -364 252 -521
392 -171 153 -226 199 -237 199 -4 0 -26 -20 -47 -44z"/>
<path d="M8490 4198 c-177 -70 -367 -106 -730 -138 -267 -24 -277 -26 -290
-50 -34 -64 15 -380 116 -732 113 -398 231 -742 339 -983 56 -126 124 -279
150 -340 70 -160 212 -441 295 -585 168 -288 534 -854 581 -896 28 -25 73 -23
389 17 828 103 1406 225 1941 408 281 96 302 109 263 153 -11 11 -89 77 -174
146 -565 458 -1202 1063 -1653 1571 -143 161 -384 455 -519 631 -111 146 -407
577 -480 700 -88 147 -96 151 -228 98z"/>
<path d="M6153 3942 c-21 -13 -32 -60 -48 -190 -9 -70 -23 -172 -31 -226 -42
-286 -112 -913 -134 -1201 -37 -502 -15 -1216 50 -1600 23 -137 26 -140 221
-223 320 -135 718 -257 1149 -352 275 -60 404 -79 627 -91 216 -11 626 -9 639
4 13 13 -14 73 -148 327 -196 371 -656 1298 -743 1498 -262 600 -412 1120
-471 1637 -17 152 -24 172 -57 180 -12 2 -150 36 -307 74 -313 76 -716 171
-728 171 -4 0 -12 -4 -19 -8z"/>
</g>
</svg>
