<?xml version="1.0" standalone="no"?>
<!DOCTYPE svg PUBLIC "-//W3C//DTD SVG 20010904//EN"
 "http://www.w3.org/TR/2001/REC-SVG-20010904/DTD/svg10.dtd">
<svg version="1.0" xmlns="http://www.w3.org/2000/svg"
 width="1569.000000pt" height="1280.000000pt" viewBox="0 0 1569.000000 1280.000000"
 preserveAspectRatio="xMidYMid meet">
<title>spiral-left</title>
<metadata>
Created by potrace 1.15, written by Peter Selinger 2001-2017
</metadata>
<g transform="translate(0.000000,1280.000000) scale(0.100000,-0.100000)"
fill="#fced77" stroke="none">
<path d="M9255 12766 c-102 -33 -508 -199 -666 -271 -179 -81 -653 -333 -754
-400 -173 -115 -254 -203 -274 -296 -31 -145 4 -503 79 -800 114 -452 412
-1058 768 -1564 56 -80 84 -111 101 -113 54 -8 203 84 399 247 57 47 136 107
175 133 132 86 130 84 124 147 -7 58 -12 81 -91 359 -58 209 -76 354 -83 692
-8 358 17 700 67 946 56 271 150 586 235 790 49 116 53 139 29 148 -23 9 -32
7 -109 -18z"/>
<path d="M9874 12591 c-71 -7 -84 -16 -123 -85 -83 -145 -177 -413 -229 -656
-35 -162 -86 -552 -122 -945 -11 -121 -25 -260 -31 -310 -6 -49 -8 -113 -5
-141 6 -53 144 -657 171 -752 9 -29 23 -56 32 -59 16 -6 161 14 463 67 346 59
333 54 350 147 35 193 119 421 247 677 197 394 582 931 1039 1450 247 281 304
348 304 361 0 30 -85 76 -239 129 -279 97 -346 105 -1071 116 -645 10 -695 10
-786 1z"/>
<path d="M12255 12009 c-219 -89 -523 -412 -902 -959 -229 -331 -309 -473
-462 -826 -62 -142 -156 -353 -208 -468 -94 -207 -105 -250 -73 -267 8 -5 189
-85 403 -179 263 -116 394 -169 407 -165 11 4 71 63 134 133 308 345 720 700
1126 969 455 303 962 563 1221 628 36 9 71 20 78 25 31 18 -3 66 -152 218
-251 254 -390 366 -663 530 -346 208 -726 383 -828 381 -17 0 -53 -9 -81 -20z"/>
<path d="M7034 11831 c-80 -51 -240 -213 -347 -351 -260 -335 -546 -837 -649
-1142 -35 -103 -42 -136 -42 -204 -1 -79 0 -83 39 -140 75 -111 613 -635 830
-809 170 -137 556 -381 845 -534 178 -95 211 -105 233 -70 33 53 137 553 137
659 0 52 -34 124 -128 272 -91 144 -126 212 -190 368 -69 170 -136 318 -196
439 -137 272 -238 619 -371 1276 -46 225 -62 275 -89 275 -7 0 -40 -17 -72
-39z"/>
<path d="M13920 10468 c-290 -41 -835 -345 -1465 -818 -300 -225 -447 -350
-635 -539 -178 -178 -276 -306 -287 -375 l-6 -39 264 -261 c145 -144 280 -274
300 -289 37 -28 37 -28 84 -11 27 9 123 50 214 91 590 268 819 347 1281 443
391 82 836 141 1325 175 127 10 240 21 253 26 14 5 22 17 22 32 0 35 -133 328
-203 446 -82 138 -235 322 -582 701 -210 229 -341 361 -390 392 -49 32 -91 38
-175 26z"/>
<path d="M5510 10008 c-12 -29 -81 -350 -115 -533 -62 -337 -52 -616 35 -1041
44 -213 76 -335 93 -351 22 -22 188 -90 310 -127 237 -72 872 -206 1207 -255
228 -34 435 -51 608 -51 l164 0 -6 44 c-12 80 -163 576 -181 596 -10 11 -79
57 -154 101 -573 343 -1098 779 -1715 1422 -114 119 -215 217 -222 217 -8 0
-19 -10 -24 -22z"/>
<path d="M9362 9195 c-145 -26 -286 -79 -324 -122 -50 -55 -123 -361 -147
-617 -14 -140 -14 -454 -1 -587 11 -108 42 -243 67 -293 18 -36 30 -34 232 30
l147 46 70 115 c175 292 443 553 754 738 129 76 306 167 370 190 121 44 235
76 340 96 142 26 160 33 160 58 0 39 -217 151 -427 220 -279 92 -617 142 -961
140 -124 0 -236 -6 -280 -14z"/>
<path d="M8554 8848 c-193 -204 -363 -519 -414 -768 -27 -132 -33 -233 -20
-370 37 -408 162 -691 415 -945 153 -153 193 -164 153 -39 -17 51 -22 92 -22
154 1 78 6 100 66 270 l65 185 -18 115 c-10 63 -32 198 -48 300 -17 102 -47
286 -68 410 -37 219 -38 231 -38 478 0 285 0 285 -71 210z"/>
<path d="M10835 8435 c-379 -88 -944 -391 -1137 -610 -38 -43 -68 -95 -68
-118 0 -22 79 -94 168 -153 117 -78 217 -124 269 -124 23 0 154 19 290 41
l248 41 145 -11 c270 -20 529 -75 730 -154 126 -49 293 -127 381 -178 69 -39
89 -35 89 19 0 43 -66 277 -105 373 -28 69 -115 194 -270 389 -229 286 -387
455 -460 490 -55 27 -152 25 -280 -5z"/>
<path d="M14415 8444 c-77 -8 -165 -19 -195 -24 -30 -6 -95 -18 -145 -26 -185
-31 -566 -132 -940 -249 -313 -99 -947 -343 -984 -379 -13 -13 -11 -22 16 -73
233 -447 293 -580 293 -649 0 -43 19 -60 82 -74 29 -6 271 -40 538 -75 976
-130 1206 -174 1630 -315 261 -86 421 -152 661 -272 119 -59 223 -108 231
-108 25 0 28 21 28 203 0 335 -26 557 -96 825 -57 221 -79 289 -236 732 -161
456 -165 465 -209 473 -160 30 -441 34 -674 11z"/>
<path d="M5302 7768 c-19 -19 -15 -32 44 -151 91 -181 159 -286 503 -779 l326
-468 130 0 c507 0 1103 161 1604 433 132 71 161 92 161 115 0 39 -142 260
-238 371 -47 53 -75 60 -274 60 -464 2 -1128 124 -1962 360 -137 39 -256 71
-265 71 -10 0 -22 -5 -29 -12z"/>
<path d="M4728 7410 c-9 -6 -52 -21 -95 -34 -43 -13 -163 -51 -268 -85 -461
-150 -1161 -338 -1600 -430 -542 -113 -958 -167 -1365 -178 -262 -6 -324 -2
-855 56 -496 55 -477 54 -498 39 -16 -12 -16 -18 8 -108 39 -153 130 -411 200
-570 74 -168 357 -656 588 -1015 401 -623 763 -1059 954 -1150 163 -78 451 9
1108 335 347 172 607 314 1150 628 215 124 518 298 675 387 543 308 826 490
985 631 110 99 188 187 183 210 -2 9 -79 85 -173 168 -328 294 -614 640 -810
981 -73 128 -89 145 -134 145 -20 0 -44 -5 -53 -10z"/>
<path d="M10195 7199 c-11 -17 -18 -278 -11 -352 l8 -68 56 -41 c206 -150 262
-197 387 -323 227 -226 384 -435 611 -812 73 -121 138 -219 147 -221 36 -7
221 334 292 538 70 202 86 281 92 455 8 223 -20 462 -60 513 -21 27 -209 93
-517 182 -297 86 -423 117 -525 129 -118 14 -472 15 -480 0z"/>
<path d="M12208 6633 l-48 -4 0 -560 c0 -545 1 -560 20 -579 11 -11 101 -61
201 -110 835 -419 1493 -889 2236 -1602 79 -75 153 -140 165 -144 31 -9 46 13
143 206 201 402 310 759 361 1185 21 171 30 627 15 740 -12 92 -34 152 -61
167 -49 26 -431 191 -575 248 -540 216 -1120 372 -1570 425 -250 28 -697 43
-887 28z"/>
<path d="M8115 6539 c-461 -199 -771 -324 -920 -372 -124 -40 -176 -50 -355
-72 -149 -19 -419 -67 -545 -98 -87 -21 -90 -23 -93 -52 -8 -86 239 -377 492
-579 257 -206 512 -336 691 -353 166 -15 317 74 655 389 281 262 721 757 765
862 18 41 10 53 -46 71 -26 9 -117 58 -202 109 -85 50 -177 100 -206 109 -81
26 -154 22 -236 -14z"/>
<path d="M10014 6397 c-141 -142 -133 -122 -108 -288 13 -81 15 -148 10 -309
-12 -440 -89 -880 -222 -1274 -29 -89 -54 -169 -54 -178 0 -11 10 -20 25 -24
36 -9 148 5 209 26 289 99 993 627 1089 816 45 88 28 176 -72 379 -103 207
-315 521 -487 722 -99 116 -205 222 -238 240 l-28 15 -124 -125z"/>
<path d="M8977 6068 c-220 -338 -588 -704 -1146 -1144 -212 -166 -270 -220
-292 -269 -27 -58 -24 -74 16 -91 61 -25 799 -203 1015 -245 98 -18 137 -21
260 -16 143 5 300 31 374 62 44 19 79 61 125 154 75 148 124 277 162 426 57
223 64 275 130 981 12 127 6 234 -14 234 -7 0 -40 -9 -74 -20 l-63 -19 -172
29 c-259 45 -234 51 -321 -82z"/>
<path d="M5611 5488 c-677 -475 -1077 -721 -1736 -1070 -601 -318 -1227 -606
-1885 -865 -146 -57 -275 -111 -288 -119 -32 -21 -28 -43 29 -130 177 -272
677 -746 1019 -966 252 -162 573 -336 865 -468 363 -165 552 -240 603 -240 29
0 185 102 367 238 429 321 1020 917 1505 1517 255 317 670 887 852 1171 84
132 100 164 89 182 -4 7 -61 34 -127 60 -344 141 -436 193 -808 466 -264 194
-373 266 -401 266 -13 0 -51 -19 -84 -42z"/>
<path d="M11753 5308 c-15 -24 -66 -115 -113 -203 -48 -88 -139 -257 -203
-375 -64 -118 -119 -228 -123 -245 -4 -25 4 -43 55 -115 434 -615 660 -1048
946 -1820 55 -146 132 -359 222 -610 52 -146 116 -325 143 -399 26 -73 55
-140 63 -149 14 -13 20 -12 54 16 49 38 492 488 643 652 120 131 233 292 390
555 46 77 124 205 173 285 110 177 241 442 264 531 21 83 11 123 -52 207 -59
79 -356 377 -470 473 -242 203 -656 481 -1256 842 -302 182 -679 397 -695 397
-8 0 -26 -19 -41 -42z"/>
<path d="M10771 4458 c-28 -24 -108 -94 -178 -157 -157 -140 -365 -296 -521
-392 -64 -40 -124 -78 -132 -85 -17 -17 -16 -89 5 -289 8 -77 21 -221 29 -320
9 -99 22 -263 31 -365 100 -1169 98 -1126 92 -1692 -4 -457 -5 -478 -31 -633
-41 -242 -43 -265 -21 -281 39 -28 183 -11 320 38 188 67 391 165 680 328 651
368 1085 688 1170 864 l29 59 -17 96 c-25 149 -87 363 -226 781 -225 676 -283
820 -417 1041 -86 143 -287 436 -488 713 -181 249 -250 336 -266 336 -5 0 -32
-19 -59 -42z"/>
<path d="M7043 4208 c-11 -13 -43 -61 -71 -108 -73 -123 -369 -554 -480 -700
-135 -176 -376 -470 -519 -631 -451 -508 -1088 -1113 -1653 -1571 -85 -69
-163 -135 -174 -146 -39 -44 -18 -57 263 -153 535 -183 1113 -305 1941 -408
316 -40 361 -42 389 -17 47 42 413 608 581 896 83 144 225 425 295 585 26 61
94 214 150 340 108 241 226 585 339 983 101 352 150 668 116 732 -13 24 -23
26 -290 50 -367 33 -533 64 -724 135 -107 41 -135 43 -163 13z"/>
<path d="M9250 3890 c-135 -32 -358 -86 -495 -119 -138 -34 -260 -64 -272 -66
-33 -8 -40 -28 -57 -180 -59 -517 -209 -1037 -471 -1637 -87 -200 -547 -1127
-743 -1498 -134 -254 -161 -314 -148 -327 13 -13 423 -15 639 -4 223 12 352
31 627 91 431 95 829 217 1149 352 195 83 198 86 221 223 65 384 87 1098 50
1600 -22 288 -92 915 -134 1201 -8 54 -22 156 -31 226 -20 165 -33 199 -75
197 -8 0 -125 -27 -260 -59z"/>
</g>
</svg>
